# xmcd CD database file
#
# Track frame offsets:
#	150
#	15878
#	35304
#	52581
#	69835
#	87764
#	106629
#	125013
#	139486
#	157376
#	177125
#	193190
#	207143
#	228017
#
# Disc length: 3279 seconds
#
# Revision: 1
# Processed by: cddbd v1.5.2PL0 Copyright (c) Steve Scherf et al.
# Submitted via: jetAudio 7
#
DISCID=aa0ccd0e
DTITLE=jamie wong-li - golden child
DYEAR=2006
DGENRE=Jazz
TTITLE0=Keep on walking
TTITLE1=karma
TTITLE2=see the light
TTITLE3=you are there
TTITLE4=coming down
TTITLE5=let's come together
TTITLE6=free
TTITLE7=golden child
TTITLE8=dangerous
TTITLE9=back into water
TTITLE10=inside
TTITLE11=sing this song
TTITLE12=put on your pipe
TTITLE13=let rivers flow
EXTD=YEAR: 2006
EXTT0=
EXTT1=
EXTT2=
EXTT3=
EXTT4=
EXTT5=
EXTT6=
EXTT7=
EXTT8=
EXTT9=
EXTT10=
EXTT11=
EXTT12=
EXTT13=
PLAYORDER=
